<?xml version="1.0" encoding="UTF-8" standalone="no"?>
<svg
   xmlns:dc="http://purl.org/dc/elements/1.1/"
   xmlns:cc="http://creativecommons.org/ns#"
   xmlns:rdf="http://www.w3.org/1999/02/22-rdf-syntax-ns#"
   xmlns:svg="http://www.w3.org/2000/svg"
   xmlns="http://www.w3.org/2000/svg"
   id="svg8"
   version="1.1"
   viewBox="0 0 167.84526 84.582534"
   height="84.582535mm"
   width="167.84526mm">
  <defs
     id="defs2" />
  <metadata
     id="metadata5">
    <rdf:RDF>
      <cc:Work
         rdf:about="">
        <dc:format>image/svg+xml</dc:format>
        <dc:type
           rdf:resource="http://purl.org/dc/dcmitype/StillImage" />
        <dc:title></dc:title>
      </cc:Work>
    </rdf:RDF>
  </metadata>
  <g
     transform="translate(-24.917437,-5.5047874)"
     id="layer1">
    <g
       transform="matrix(1.2313757,0,0,1.2313757,-0.61464148,-13.741954)"
       id="g871">
      <path
         d="M 40.99,58.759 23.05,46.384 c -1.818,-1.254 -1.2,-3.865 1.067,-4.479 L 43.184,36.73 a 2.7,2.7 0 0 1 3.616,2.492 l -1.13,17.549 c -0.134,2.083 -2.862,3.242 -4.68,1.988 z"
         fill="#e9327c"
         id="path833" />
      <path
         d="M 35.3,61.814 24.731,41.145 a 2.883,2.883 0 0 1 3.007,-4.161 l 19.587,3.023 a 2.883,2.883 0 0 1 2.127,4.162 L 40.429,61.815 A 2.883,2.883 0 0 1 35.3,61.814 Z"
         fill="#1dace3"
         id="path835" />
      <path
         d="M 46.752,39.918 36.988,38.411 25,41.666 l 4.785,9.361 11.205,7.732 a 2.888,2.888 0 0 0 0.806,0.383 l 4.256,-8.323 z"
         fill="#001a49"
         id="path837" />
      <path
         d="m 96.209,42.334 a 1.835,1.835 0 1 1 1.835,1.835 1.854,1.854 0 0 1 -1.835,-1.835 z m 0.306,2.732 h 3.059 V 55.26 h -3.059 z"
         fill="#001a49"
         id="path839" />
      <path
         d="m 112.784,50.163 a 5.119,5.119 0 0 1 -4.872,5.383 3.829,3.829 0 0 1 -3.038,-1.244 v 5.036 h -3.058 V 45.066 h 3.058 v 0.958 a 3.829,3.829 0 0 1 3.038,-1.243 5.118,5.118 0 0 1 4.872,5.382 z m -3.058,0 a 2.427,2.427 0 1 0 -2.426,2.488 2.327,2.327 0 0 0 2.426,-2.488 z"
         fill="#001a49"
         id="path841" />
      <path
         d="m 122.223,52.2 c 0,2.345 -2.039,3.344 -4.241,3.344 a 4.463,4.463 0 0 1 -4.383,-2.427 l 2.65,-1.508 a 1.675,1.675 0 0 0 1.733,1.2 c 0.734,0 1.1,-0.225 1.1,-0.632 0,-1.122 -5.015,-0.53 -5.015,-4.058 0,-2.222 1.875,-3.343 4,-3.343 a 4.46,4.46 0 0 1 3.975,2.181 l -2.609,1.407 a 1.481,1.481 0 0 0 -1.366,-0.9 c -0.53,0 -0.856,0.2 -0.856,0.571 -0.003,1.17 5.012,0.395 5.012,4.165 z"
         fill="#001a49"
         id="path843" />
      <path
         d="M 133.4,45.066 V 55.26 h -3.058 V 54.3 a 3.489,3.489 0 0 1 -2.916,1.244 c -2.059,0 -3.812,-1.468 -3.812,-4.221 v -6.257 h 3.058 v 5.811 a 1.681,1.681 0 0 0 1.774,1.855 c 1.121,0 1.9,-0.652 1.9,-2.1 v -5.566 z"
         fill="#001a49"
         id="path845" />
      <path
         d="m 150.928,49 v 6.26 h -3.058 v -5.994 c 0,-1.019 -0.49,-1.672 -1.468,-1.672 -1.02,0 -1.59,0.714 -1.59,1.917 v 5.749 h -3.059 v -5.994 c 0,-1.019 -0.489,-1.672 -1.468,-1.672 -1.019,0 -1.59,0.714 -1.59,1.917 v 5.749 h -3.058 V 45.066 H 138.7 V 46 a 3.129,3.129 0 0 1 2.732,-1.223 3.034,3.034 0 0 1 2.671,1.345 3.359,3.359 0 0 1 2.957,-1.345 c 2.34,0.004 3.868,1.675 3.868,4.223 z"
         fill="#001a49"
         id="path847" />
      <circle
         cx="153.519"
         cy="42.733002"
         r="2.27"
         fill="#001a49"
         id="circle849" />
      <path
         d="m 54.457,40.377 h 3.059 V 55.26 h -3.059 z m 4.791,9.786 a 5.4,5.4 0 1 1 5.4,5.383 5.343,5.343 0 0 1 -5.4,-5.383 z m 7.748,0 A 2.345,2.345 0 1 0 64.651,52.569 2.287,2.287 0 0 0 67,50.163 Z m 15.249,-5.1 v 9.685 c 0,3.425 -2.671,4.872 -5.382,4.872 a 5.212,5.212 0 0 1 -4.832,-2.467 l 2.609,-1.509 a 2.331,2.331 0 0 0 2.325,1.285 2.032,2.032 0 0 0 2.3,-2.181 V 53.81 a 3.622,3.622 0 0 1 -2.977,1.325 5.181,5.181 0 0 1 0,-10.357 3.622,3.622 0 0 1 2.977,1.325 v -1.04 z m -2.976,4.893 a 2.47,2.47 0 1 0 -2.469,2.369 2.308,2.308 0 0 0 2.469,-2.366 z m 4.708,0.2 a 5.4,5.4 0 1 1 5.4,5.383 5.343,5.343 0 0 1 -5.4,-5.376 z m 7.748,0 a 2.346,2.346 0 1 0 -2.345,2.406 2.287,2.287 0 0 0 2.345,-2.399 z"
         fill="#001a49"
         id="path851" />
    </g>
    <rect
       y="5.5047874"
       x="24.917437"
       height="84.582535"
       width="167.84526"
       id="rect873"
       style="fill:none;fill-opacity:0.25603;stroke:none;stroke-width:1.63249;stroke-linecap:round;stroke-linejoin:round;paint-order:fill markers stroke" />
  </g>
</svg>
